<svg width="96" height="80" viewBox="0 0 96 80" fill="none" xmlns="http://www.w3.org/2000/svg">
<path d="M39.8786 60.3821C29.2936 63.9834 28.9905 65.3585 19.3994 64.2329C12.6272 63.4382 5.81929 60.1115 5.81929 60.1115C5.81929 60.1115 14.6973 67.3773 23.9525 67.9598C31.279 68.4208 36.8826 64.9346 43.5608 62.7484C53.3816 59.5342 60.2071 59.1649 66.6354 59.1492C77.2556 59.1204 94.3775 63.6816 94.3775 63.6816C94.3775 63.6816 86.5864 59.826 75.8019 57.3297C63.7904 54.5493 50.4637 56.7807 39.8786 60.3821Z" fill="#5663A0"/>
<path d="M87.2095 41.0314L21.0865 52.2813C24.4966 53.4374 26.894 56.7644 26.7515 60.5958C26.7223 61.3804 26.5861 62.1343 26.3615 62.8483C26.5631 62.7523 36.2767 58.1461 49.7575 55.3448C61.7053 52.8619 70.872 54.012 72.9486 54.3328C75.5812 48.0752 80.7961 43.2132 87.2095 41.0314Z" fill="#F89C0E"/>
<path d="M44.8111 25.7027C47.0499 36.6087 44.9905 43.5461 43.3275 47.0049C47.7022 42.8645 53.4719 40.1437 59.9467 39.6498C63.1202 39.4077 66.2079 39.7219 69.113 40.5065C68.7462 37.774 66.9233 27.9059 59.0287 18.6575C46.988 4.55099 32.5385 5.23346 32.5385 5.23346C32.5385 5.23346 41.4162 9.16751 44.8111 25.7027Z" fill="#6C78AF"/>
<path d="M39.5754 17.5166C35.633 8.71213 28.5018 5.8546 25.9749 5.0948C30.5012 11.5476 33.4787 19.5749 34.154 28.4267C34.6786 35.3032 33.754 41.8999 31.6775 47.8137C34.3245 44.6607 38.1945 42.532 42.6313 42.1936C42.816 42.1795 42.9994 42.1705 43.1812 42.1616C43.4748 40.3492 44.9121 29.4361 39.5754 17.5166Z" fill="#6C78AF" fill-opacity="0.75"/>
</svg>