<svg width="242" height="78" viewBox="0 0 242 78" fill="none" xmlns="http://www.w3.org/2000/svg">
<path d="M38.9482 59.5505C28.3881 63.1131 28.0857 64.4734 18.5172 63.3599C11.7609 62.5738 4.969 59.2828 4.969 59.2828C4.969 59.2828 13.8261 66.4705 23.0596 67.0467C30.3688 67.5028 35.9592 64.054 42.6217 61.8913C52.4194 58.7117 59.2289 58.3464 65.6421 58.3308C76.2372 58.3024 93.3189 62.8145 93.3189 62.8145C93.3189 62.8145 85.5461 59.0004 74.7869 56.5308C62.8037 53.7804 49.5083 55.9878 38.9482 59.5505Z" fill="#5663A0"/>
<path d="M86.1676 40.4077L20.2003 51.5368C23.6023 52.6804 25.9941 55.9717 25.8519 59.7619C25.8228 60.5381 25.6869 61.2839 25.4628 61.9902C25.6639 61.8953 35.3547 57.3385 48.8038 54.5674C60.7235 52.1111 69.8686 53.2488 71.9403 53.5662C74.5667 47.3759 79.7694 42.5661 86.1676 40.4077Z" fill="#F89C0E"/>
<path d="M43.8691 25.2438C46.1026 36.0326 44.048 42.8955 42.3889 46.317C46.7533 42.2212 52.5095 39.5296 58.969 39.041C62.135 38.8015 65.2154 39.1123 68.1138 39.8885C67.7478 37.1854 65.9292 27.4233 58.0531 18.2743C46.0408 4.3194 31.6252 4.99454 31.6252 4.99454C31.6252 4.99454 40.4821 8.88631 43.8691 25.2438Z" fill="#6C78AF"/>
<path d="M38.6456 17.1457C34.7124 8.43581 27.598 5.60899 25.077 4.85736C29.5927 11.2408 32.5633 19.1818 33.2369 27.9385C33.7603 34.7411 32.8378 41.2669 30.7663 47.1171C33.407 43.998 37.2679 41.8922 41.6942 41.5574C41.8785 41.5435 42.0615 41.5346 42.2429 41.5258C42.5358 39.7329 43.9697 28.937 38.6456 17.1457Z" fill="#6C78AF" fill-opacity="0.75"/>
<path d="M97.1278 34.9243C98.1894 34.9243 99.1339 35.141 99.9614 35.5745C100.789 35.9925 101.437 36.6039 101.905 37.4089C102.373 38.1984 102.608 39.135 102.608 40.2187C102.608 41.6119 102.303 42.8581 101.694 43.9572C101.085 45.0563 100.242 45.9233 99.1652 46.558C98.1036 47.1772 96.9092 47.4868 95.5822 47.4868C94.5206 47.4868 93.6073 47.301 92.8423 46.9295C92.0774 46.5425 91.4919 45.9852 91.086 45.2576L89.7746 51.8523H87.5265L90.8987 35.0404H93.0531L92.7487 36.573C93.904 35.4739 95.3637 34.9243 97.1278 34.9243ZM95.4886 45.5362C96.4097 45.5362 97.2371 45.3195 97.9709 44.8861C98.7046 44.4371 99.2823 43.8179 99.7038 43.0284C100.125 42.2389 100.336 41.341 100.336 40.3348C100.336 39.2356 100.016 38.3842 99.3759 37.7805C98.7358 37.1767 97.8225 36.8749 96.636 36.8749C95.7149 36.8749 94.8797 37.0993 94.1303 37.5483C93.3966 37.9817 92.8189 38.5932 92.3974 39.3827C91.9915 40.1722 91.7885 41.0701 91.7885 42.0763C91.7885 43.16 92.1086 44.0114 92.7487 44.6306C93.4044 45.2344 94.3177 45.5362 95.4886 45.5362Z" fill="#6C78AF"/>
<path d="M111.802 34.9243C113.223 34.9243 114.324 35.2804 115.104 35.9925C115.901 36.7046 116.299 37.7108 116.299 39.0112C116.299 39.4601 116.252 39.94 116.158 40.4509L114.776 47.3475H112.528L113.91 40.4509C113.988 40.0329 114.027 39.6923 114.027 39.4292C114.027 38.6242 113.785 38.0049 113.301 37.5715C112.817 37.138 112.099 36.9213 111.147 36.9213C109.929 36.9213 108.922 37.2541 108.126 37.9198C107.345 38.57 106.822 39.5453 106.557 40.8456L105.245 47.3475H102.997L106.463 30.1176H108.711L107.423 36.4801C108.532 35.4429 109.991 34.9243 111.802 34.9243Z" fill="#6C78AF"/>
<path d="M126.22 34.9243C127.282 34.9243 128.226 35.141 129.053 35.5745C129.881 35.9925 130.529 36.6039 130.997 37.4089C131.466 38.1984 131.7 39.135 131.7 40.2187C131.7 41.6119 131.395 42.8581 130.786 43.9572C130.178 45.0563 129.335 45.9233 128.257 46.558C127.196 47.1772 126.001 47.4868 124.674 47.4868C123.613 47.4868 122.699 47.301 121.934 46.9295C121.169 46.5425 120.584 45.9852 120.178 45.2576L118.867 51.8523H116.619L119.991 35.0404H122.145L121.841 36.573C122.996 35.4739 124.456 34.9243 126.22 34.9243ZM124.581 45.5362C125.502 45.5362 126.329 45.3195 127.063 44.8861C127.797 44.4371 128.374 43.8179 128.796 43.0284C129.217 42.2389 129.428 41.341 129.428 40.3348C129.428 39.2356 129.108 38.3842 128.468 37.7805C127.828 37.1767 126.915 36.8749 125.728 36.8749C124.807 36.8749 123.972 37.0993 123.222 37.5483C122.489 37.9817 121.911 38.5932 121.49 39.3827C121.084 40.1722 120.881 41.0701 120.881 42.0763C120.881 43.16 121.201 44.0114 121.841 44.6306C122.496 45.2344 123.41 45.5362 124.581 45.5362Z" fill="#6C78AF"/>
<path d="M155.287 31.0929L152.055 47.3475H147.77L149.456 38.779L143.999 45.7453H141.962L138.988 38.779L137.255 47.3475H132.993L136.271 31.0929H140.042L143.882 40.4973L151.329 31.0929H155.287Z" fill="#F89C0E"/>
<path d="M169.621 34.7618L161.495 47.9048C160.824 48.973 160.176 49.8012 159.551 50.3894C158.942 50.9932 158.294 51.4189 157.608 51.6666C156.921 51.9297 156.117 52.0613 155.195 52.0613C154.524 52.0613 153.861 51.9607 153.205 51.7595C152.534 51.5582 152.003 51.295 151.613 50.97L153.603 47.8584C154.165 48.3383 154.821 48.5782 155.57 48.5782C155.976 48.5782 156.32 48.4853 156.601 48.2996C156.882 48.1293 157.163 47.8429 157.444 47.4404L154.563 34.7618H158.989L160.582 42.4943L165.265 34.7618H169.621Z" fill="#F89C0E"/>
<path d="M178.164 44.1895H171.186L169.289 47.3475H164.395L174.909 31.0929H179.476L183.433 47.3475H178.82L178.164 44.1895ZM177.462 40.7992L176.361 35.5281L173.223 40.7992H177.462Z" fill="#F89C0E"/>
<path d="M199.996 30.1176L196.53 47.3475H192.315L192.572 46.1168C191.557 47.0766 190.332 47.5565 188.896 47.5565C187.959 47.5565 187.077 47.332 186.249 46.8831C185.437 46.4187 184.782 45.753 184.282 44.8861C183.783 44.0192 183.533 42.9975 183.533 41.8209C183.533 40.4586 183.837 39.2279 184.446 38.1288C185.071 37.0142 185.914 36.1396 186.975 35.5049C188.037 34.8701 189.192 34.5528 190.441 34.5528C192.252 34.5528 193.54 35.1101 194.305 36.2247L195.546 30.1176H199.996ZM190.441 44.0037C191.331 44.0037 192.057 43.6786 192.619 43.0284C193.181 42.3782 193.462 41.5345 193.462 40.4973C193.462 39.7543 193.251 39.166 192.83 38.7326C192.408 38.2991 191.823 38.0824 191.073 38.0824C190.183 38.0824 189.458 38.4075 188.896 39.0576C188.333 39.7078 188.052 40.5593 188.052 41.6119C188.052 42.355 188.263 42.9433 188.685 43.3767C189.106 43.7947 189.692 44.0037 190.441 44.0037Z" fill="#F89C0E"/>
<path d="M216.745 34.5528C218.088 34.5528 219.165 34.9243 219.977 35.6674C220.789 36.4105 221.194 37.4631 221.194 38.8254C221.194 39.3363 221.14 39.8549 221.031 40.3812L219.649 47.3475H215.199L216.511 40.8457C216.573 40.5515 216.605 40.2574 216.605 39.9633C216.605 39.406 216.464 38.988 216.183 38.7093C215.918 38.4307 215.527 38.2914 215.012 38.2914C213.591 38.2914 212.694 39.197 212.319 41.0082L211.031 47.3475H206.582L207.917 40.8457C207.979 40.5825 208.01 40.2961 208.01 39.9865C208.01 39.4292 207.87 39.0112 207.589 38.7326C207.323 38.4384 206.933 38.2914 206.418 38.2914C204.981 38.2914 204.076 39.2125 203.701 41.0546L202.437 47.3475H197.987L200.516 34.7618H204.732L204.474 36.0389C205.52 35.0482 206.785 34.5528 208.268 34.5528C209.111 34.5528 209.868 34.7308 210.539 35.0869C211.211 35.4275 211.726 35.9306 212.085 36.5962C212.678 35.9306 213.365 35.4275 214.146 35.0869C214.942 34.7308 215.808 34.5528 216.745 34.5528Z" fill="#F89C0E"/>
<path d="M223.581 34.7618H228.007L225.478 47.3475H221.052L223.581 34.7618ZM226.415 33.3685C225.65 33.3685 225.033 33.1595 224.565 32.7416C224.096 32.3236 223.862 31.805 223.862 31.1858C223.862 30.4582 224.12 29.8622 224.635 29.3978C225.166 28.9179 225.861 28.6779 226.719 28.6779C227.5 28.6779 228.124 28.8792 228.593 29.2817C229.061 29.6687 229.295 30.1718 229.295 30.791C229.295 31.5496 229.03 32.1688 228.499 32.6487C227.968 33.1286 227.274 33.3685 226.415 33.3685Z" fill="#F89C0E"/>
<path d="M237.41 34.5528C238.8 34.5528 239.908 34.9243 240.735 35.6674C241.578 36.395 242 37.4477 242 38.8254C242 39.3363 241.945 39.8549 241.836 40.3812L240.431 47.3475H235.982L237.293 40.7992C237.355 40.536 237.387 40.2574 237.387 39.9633C237.387 38.8487 236.801 38.2914 235.63 38.2914C234.85 38.2914 234.21 38.5313 233.71 39.0112C233.21 39.4756 232.859 40.18 232.656 41.1243L231.392 47.3475H226.942L229.471 34.7618H233.687L233.429 36.0622C233.975 35.5513 234.592 35.172 235.279 34.9243C235.966 34.6766 236.676 34.5528 237.41 34.5528Z" fill="#F89C0E"/>
</svg>